<svg xmlns="http://www.w3.org/2000/svg" viewBox="0 0 24 24"><g><path d="M6.6 10.27a4 4 0 01-.16-1.15 5.46 5.46 0 015.68-5.52c3.1 0 4.8 1.89 4.8 4.42 0 3.32-1.47 6.13-3.66 6.13-1.21 0-1.63-.92-1.35-2.14.42-1.75 2.71-4.66 0-5.26s-3.13 2.84-3.18 4.4l-1.66 7a14.51 14.51 0 000 4.91.17.17 0 00.31.08A13.85 13.85 0 009.67 19c.16-.58.75-2.8.75-2.8a3.7 3.7 0 003.16 1.61c4.15 0 7.13-4.54 7.13-9.61 0-3.83-3.25-7.4-8.18-7.4-6.14 0-9.24 4.4-9.24 8.07a5.36 5.36 0 002 4.57z" fill="none" stroke="currentColor" stroke-linecap="round" stroke-linejoin="round" stroke-width="1.5"/></g></svg>