<svg xmlns="http://www.w3.org/2000/svg" viewBox="0 0 24 24"><g><path d="M1.49 12a10.49 10.49 0 0012.27 10.4.53.53 0 01.35.06 6.08 6.08 0 003 .79A6.16 6.16 0 0022.42 14a.54.54 0 01-.07-.35 10.65 10.65 0 00.13-1.65A10.49 10.49 0 0010.24 1.61a.53.53 0 01-.35-.06 6.07 6.07 0 00-3-.8A6.16 6.16 0 001.56 10a.54.54 0 01.06.35A10.57 10.57 0 001.49 12zM12.1 5c3.17.19 5 1.59 5.21 2.9a1.34 1.34 0 01-1.46 1.5c-1.43 0-1.58-1.92-4.05-1.92-1.11 0-2.06.47-2.06 1.47 0 2.11 7.92.88 7.92 5.53 0 2.68-2.13 4.43-5.32 4.43-2.8 0-5.62-1.28-5.6-3.47a1.23 1.23 0 011.15-1.27c1.65 0 1.63 2.46 4.26 2.46 1.84 0 2.47-1 2.47-1.71 0-2.54-8-1-8-5.76C6.66 6.57 8.78 4.79 12.1 5z" fill="none" stroke="currentColor" stroke-linecap="round" stroke-linejoin="round" stroke-width="1.5"/></g></svg>