<svg xmlns="http://www.w3.org/2000/svg" viewBox="0 0 24 24"><g><path d="M.75 5.912a.98.98 0 01.139-.5L3.542.987a.491.491 0 01.42-.237h18.8a.489.489 0 01.489.489v12.7a.979.979 0 01-.287.692l-3.829 3.829a.978.978 0 01-.691.286h-7a.977.977 0 00-.707.3L6.484 23.1a.489.489 0 01-.843-.338v-3.524a.489.489 0 00-.489-.49H1.239a.489.489 0 01-.489-.489z" fill="none" stroke="currentColor" stroke-linecap="round" stroke-linejoin="round" stroke-width="1.5"/><path d="M6.489 3.75A.489.489 0 006 4.239v9.522a.489.489 0 00.489.489H7.5v3l2.543-3h6.867a.979.979 0 00.692-.287l2.361-2.363a.979.979 0 00.287-.692V4.239a.489.489 0 00-.489-.489zM11.25 6.75v3.75M15.75 6.75v3.75" fill="none" stroke="currentColor" stroke-linecap="round" stroke-linejoin="round" stroke-width="1.5"/></g></svg>