<svg xmlns="http://www.w3.org/2000/svg" viewBox="0 0 24 24"><g fill="none" stroke="currentColor" stroke-linecap="round" stroke-linejoin="round" stroke-width="1.5"><path d="M5.24 2.74a1 1 0 00-.66.72 1 1 0 00.25.94l5.25 5.66a1 1 0 001.09.27 1 1 0 00.68-.91l.39-7.6a1 1 0 00-1.35-1zM19.63 6.31a1 1 0 00-1.74 0l-2.48 3.79a1 1 0 000 1.1 1 1 0 001 .47l4.4-.59a1 1 0 00.78-.56 1 1 0 000-1zM20.71 18.71a1 1 0 00.28-.95 1 1 0 00-.65-.74l-4.28-1.5a1 1 0 00-1.29 1.33L16.39 21a1 1 0 001.67.35zM10.67 23.18a1 1 0 001-.13 1 1 0 00.41-.9l-.37-4.53a1 1 0 00-.67-.87 1 1 0 00-1.1.25l-3.1 3.17a1 1 0 00.36 1.66zM2.5 15.83a1 1 0 001.5.84l4-2.18a1 1 0 00.53-1 1 1 0 00-.66-.89L3.7 11.09a1 1 0 00-1 .14 1 1 0 00-.41.87z"/></g></svg>